<?xml version="1.0" encoding="UTF-8"?>
<!DOCTYPE svg PUBLIC "-//W3C//DTD SVG 1.1//EN" "http://www.w3.org/Graphics/SVG/1.1/DTD/svg11.dtd">
<!-- Creator: CorelDRAW -->
<svg xmlns="http://www.w3.org/2000/svg" xml:space="preserve" width="5790px" height="5384px" version="1.1" style="shape-rendering:geometricPrecision; text-rendering:geometricPrecision; image-rendering:optimizeQuality; fill-rule:evenodd; clip-rule:evenodd"
viewBox="0 0 5814.98 5407.34"
 xmlns:xlink="http://www.w3.org/1999/xlink"
 xmlns:xodm="http://www.corel.com/coreldraw/odm/2003">
 <defs>
  <style type="text/css">
   <![CDATA[
    .fil0 {fill:#373435}
   ]]>
  </style>
 </defs>
 <g id="Layer_x0020_1">
  <metadata id="CorelCorpID_0Corel-Layer"/>
  <path class="fil0" d="M2182.21 3550.92c-38.91,-285.13 -51.83,-466.48 -51.83,-466.48 0,0 301.15,518.12 333.54,540.88 32.38,22.76 10.08,-435.81 91.21,-748.01 -76.27,190.06 -79.95,394.76 -98.09,580.51 -1.9,20.16 -206.63,-282.54 -258.35,-463.89 -51.83,-181.35 -87.54,-576.58 -94.06,-677.05 -6.52,-100.47 0,-162.03 0,-162.03 0,0 -125.12,97.64 -240.11,223.03 -61.5,67.06 -120.1,142.06 -155.1,214.31 -100.47,207.33 -100.47,236.5 -100.47,236.5 0,0 191.2,93.94 184.68,139.25 -6.41,45.32 -207.21,217.05 -207.21,217.05 0,0 174.71,900.65 485.59,1393.04 242.65,384.01 390.63,574.91 443.97,640.29 15.03,18.42 22.54,26.87 22.54,26.87 0,0 -317.41,-1409.23 -356.31,-1694.27zm-1688.15 568.48l-15.77 -120.59 -1.79 0 -106.75 -867.56c0,0 -243.4,412.87 -310.88,669.34 -67.37,256.42 -58.48,328.43 -58.48,328.43l494.97 0.38 -1.3 -10zm2402.44 -1627.92c-35.46,0 -210.19,-40.57 -210.19,-40.57 35.47,50.64 200.11,91.23 276.01,86.12 75.91,-5.1 136.67,-70.94 136.67,-70.94 0,0 -30.38,0 -75.91,15.19 -45.57,15.3 -91.13,10.2 -126.58,10.2zm-176.74 -374.94c-18.25,38.56 -29.08,59.13 -33.06,76.06 -3.64,15.5 -1.53,27.95 5.9,48.37 15.54,42.7 131.9,145.78 174.72,145.78 42.7,0 132.12,-112.68 132.12,-112.68 0,0 -112.66,66.06 -136.16,56.45 -23.36,-9.73 -90.26,-98.69 -91.2,-125.97 -0.09,-2.75 -0.01,-5.67 0.2,-8.75 1.89,-27.37 14.32,-66.86 16.15,-105.31 31.66,0.76 63.54,1.15 95.61,1.15 951.03,0 1726.67,-337.7 1726.67,-751.66 0,-242.33 -265.64,-458.49 -676.62,-596.12 277.45,119.55 453.86,297.34 453.86,495.3 0,358.45 -578.74,650.83 -1288.38,650.83 -709.55,0 -1288.26,-292.38 -1288.26,-650.83 0,-118.86 63.59,-230.45 174.46,-326.52 0.35,-7.47 0.71,-14.94 1.08,-22.42 -20.51,10.96 -48.5,25.92 -86.7,46.34 -142.93,76.28 -240.2,277.09 -240.2,277.09 0,0 2.85,-52.78 61.33,-161.66 44.45,-82.85 198.45,-175.55 268.65,-219.12 0.28,-4.71 0.55,-9.41 0.84,-14.11 -78.28,31.31 -271.96,123.44 -394.75,204.17 -156.1,102.6 -180.41,253.36 -180.41,253.36 0,0 15.06,-172.94 150.29,-289.9 101.43,-87.7 324.14,-184.8 428.85,-227.75 0.39,-5.49 0.8,-10.97 1.21,-16.45 -15.78,3.7 -35.97,9.18 -61.77,17.18 -104.86,32.52 -326.79,155.97 -326.79,155.97 0,0 28.48,-30.81 137.36,-99.15 97.14,-60.81 223.77,-110.19 250.18,-120.22 -501.24,131.81 -837.55,371.34 -837.55,644.01 0,391.49 693.72,714.78 1573.47,748.71 -2.96,9.08 -6.62,18.4 -11.1,27.85zm-691.51 -942.73c0,0 317.17,301.74 912.27,274.34 595.07,-27.4 845.59,-293.68 845.59,-293.68 0,0 -11.9,-242.04 -28.02,-462.41 -0.3,-4.11 -0.6,-8.21 -0.91,-12.31 -11.42,-154 -24.84,-294.92 -37.6,-331.64 -28.25,-81.23 -298.35,-287.86 -389.78,-287.86 0,0 -125.96,30.01 -240.31,91.91 -129.43,70.11 -254.79,174.85 -358.69,201.77 -195.72,50.89 -271.87,-88.36 -271.87,-88.36 0,0 120.28,89.9 270.09,24.41 149.92,-65.43 272.09,-171.14 340.63,-204.45 68.58,-33.32 174.37,-43.19 174.37,-43.19 0,0 -424.86,-97.84 -714.63,3.94 -289.66,101.77 -422.74,262.36 -454.18,458.2 -6.16,38.53 -11.72,87.82 -16.67,142.16l0.07 -0.05 -2.47 34.02 -13.07 179.56c0,0 0,0 -0.09,0.05 -0.15,2.52 -0.3,5.03 -0.45,7.54 -9.52,162.02 -14.28,306.05 -14.28,306.05zm-31.68 248.84c9.86,54.8 369.96,270.33 824.13,289.77 454.16,19.58 916.16,-203.54 978.8,-270.07 53.26,-56.57 50.3,-144.21 10.82,-237.65 -197.84,196.06 -609.33,283.83 -867.46,295.64 -113.71,5.24 -242.7,-3.31 -371.76,-27.4 -206.97,-38.62 -414.09,-117.21 -558.63,-243.03 -21.47,71.4 -23.72,148.98 -15.9,192.74zm1240.01 1401.58c2.39,3.55 14.71,24.04 53.13,118.44 43.64,107.12 51.47,402.71 51.47,402.71 0,0 4.39,-4.85 12.62,-17.35 25.86,-39.28 89.64,-154.1 173.96,-431.01 92.81,-305.22 94.2,-660.35 92.16,-768.62 -5.69,1.13 -11.37,2.24 -17.06,3.33 -31.25,67.91 -104.88,216.68 -194.19,320.84 -118.96,138.9 -265.83,234.14 -265.83,234.14 67.5,43.56 337.35,-158.8 337.35,-158.8l-244.08 295.67c0,0 0.14,0.17 0.47,0.65zm-801.37 521.15c0,0 7.95,-295.59 51.6,-402.71 38.41,-94.35 50.73,-114.87 53.14,-118.43 0.33,-0.49 0.47,-0.66 0.47,-0.66l-244.11 -295.67c0,0 269.85,202.36 337.35,158.8 0,0 -146.85,-95.24 -265.82,-234.14 -88.52,-103.25 -161.65,-250.34 -193.35,-319.05 -9.21,-19.96 -14.93,-33.3 -16.51,-37.03 -0.3,-0.7 -0.45,-1.06 -0.45,-1.06 0,0 -0.1,2.29 -0.25,6.68 -0.2,5.81 -0.48,15.28 -0.71,27.97 -2,110.22 -0.16,463.28 92.18,766.94 84.42,277.21 148.17,391.98 173.95,431.14 8.16,12.4 12.51,17.22 12.51,17.22zm327.86 -76.61c65.96,11.98 160.74,15.69 223.18,7.95 27.56,-3.41 48.81,-9.06 58.51,-17.21 39.37,-33.22 116.12,-286.08 99.5,-306.88 -16.57,-20.76 -406.35,-49.67 -520.46,2.18 0,0 14.59,267.34 83.04,298.39 13.4,6.12 33.03,11.36 56.23,15.57zm431.75 1960.1l-203.05 -1900.53c-69.85,9.37 -162.12,4.47 -230.82,-7.41l-84.95 2085.95 537.89 0.46 -4.4 -41.18c288.56,-179.41 820.18,-855.34 1103.35,-1404.46 -285,675.03 -564.47,972.88 -1004.17,1421.95l693.19 -61.59c0,0 136.03,-90.59 447.07,-550.59 310.85,-459.87 524.6,-1496.31 524.6,-1496.31 -16.26,257.05 -97.15,554.27 -162.01,751.53l285.01 -395.22c0,0 -226.65,356.3 -349.76,621.89 -123.17,265.58 -181.41,732.1 -181.41,732.1 0,0 531.17,-401.74 621.93,-589.62 22.65,-46.95 50.15,-145.55 77.96,-268.1l549.73 0.5c0,0 -255.57,-876.34 -414.16,-1002.42 -130.15,-103.53 -153.42,-122.04 -157.58,-125.35 -0.3,-0.2 -0.61,-0.4 -0.91,-0.59 -88.64,-57.16 -179.71,-105.2 -177.92,-90.31 3.31,26.7 -15.46,115.79 -15.46,115.79 0,0 -29.15,-158.72 -103.66,-200.82 -59.98,-33.81 -694.17,-303.29 -938.31,-406.71 41.5,51.77 76.95,104.24 101.29,154.43 18.12,37.58 104.95,212.07 104.95,256.43l0 29.29 -26.32 12.01c-30.84,15.06 -145.41,77.45 -160.35,104.86 15.14,18.37 157.62,145.15 193.07,175.29l20.41 16.98 -4.97 26.32c-80.17,424.14 -261.57,1044.14 -492,1408.9 -129.89,205.66 -306.98,491.63 -471.13,673.48l-64.47 71.32 -2.32 -21.66 -10.32 -96.61zm399.47 -1677.95c-38.91,285.04 -356.3,1694.27 -356.3,1694.27 0,0 7.51,-8.44 22.53,-26.85 53.33,-65.36 201.32,-256.27 444,-640.31 310.85,-492.39 485.59,-1393.04 485.59,-1393.04 0,0 -200.8,-171.73 -207.25,-217.05 -6.49,-45.31 184.7,-139.25 184.7,-139.25 0,0 0,-29.17 -100.46,-236.5 -35.02,-72.26 -93.62,-147.27 -155.13,-214.33 -114.98,-125.38 -240.09,-223.01 -240.09,-223.01 0,0 6.52,61.56 0,162.03 -6.53,100.47 -42.23,495.7 -94.07,677.05 -51.72,181.35 -256.42,484.05 -258.35,463.89 -18.12,-185.75 -21.8,-390.45 -98.08,-580.51 81.14,312.2 58.83,770.77 91.22,748.01 32.27,-22.76 333.54,-540.88 333.54,-540.88 0,0 -12.93,181.35 -51.85,466.48zm-1560.82 1051.42c-230.47,-364.76 -411.83,-984.76 -492.01,-1408.9l-4.98 -26.32 20.4 -16.98c35.46,-30.14 177.92,-156.92 193.1,-175.29 -14.94,-27.41 -129.52,-89.8 -160.36,-104.86l-26.34 -12.01 0 -29.29c0,-44.36 86.83,-218.85 104.98,-256.43 24.33,-50.19 59.78,-102.67 101.27,-154.44 -244.11,103.42 -878.31,372.91 -938.33,406.72 -74.49,42.1 -103.67,200.82 -103.67,200.82 0,0 -18.74,-89.09 -15.54,-115.79 3.32,-26.65 -290.95,148.3 -336.27,216.25l106.68 866.93c0.04,0.21 0.08,0.42 0.13,0.63l1.73 0 3.08 23.6c35.54,172.47 72.73,318.44 101.89,378.86 90.74,187.88 621.89,589.62 621.89,589.62 0,0 -58.24,-466.52 -181.36,-732.1 -123.12,-265.59 -349.79,-621.89 -349.79,-621.89l285.03 395.22c-64.89,-197.26 -145.78,-494.48 -162.03,-751.53 0,0 213.74,1036.44 524.63,1496.31 311,460 447.05,550.59 447.05,550.59l693.18 61.59c-439.7,-449.07 -719.15,-746.92 -1004.19,-1421.95 295.71,573.35 862.21,1284.95 1140.12,1425.26 0,0 -0.63,-1.18 -1.86,-3.49l-97.3 -107.65c-164.16,-181.85 -341.25,-467.82 -471.13,-673.48z"/>
 </g>
</svg>
